<mxfile host="Electron" modified="2024-08-19T22:19:32.172Z" agent="Mozilla/5.0 (X11; Linux x86_64) AppleWebKit/537.36 (KHTML, like Gecko) draw.io/22.1.15 Chrome/120.0.6099.109 Electron/28.1.0 Safari/537.36" etag="5RIZvvwplplms-J4TUPZ" version="22.1.15" type="device">
  <diagram name="Page-1" id="-AsA6orFKc8SlClWfp2E">
    <mxGraphModel dx="5220" dy="1124" grid="1" gridSize="10" guides="1" tooltips="1" connect="1" arrows="1" fold="1" page="1" pageScale="1" pageWidth="827" pageHeight="1169" math="0" shadow="0">
      <root>
        <mxCell id="0" />
        <mxCell id="1" parent="0" />
        <mxCell id="Tkxw26_hyXx5wk3KDLGs-33" value="" style="shape=table;html=1;whiteSpace=wrap;startSize=0;container=1;collapsible=0;childLayout=tableLayout;fontStyle=1;align=left;fillColor=#E6D0DE;strokeColor=#6c8ebf;fontColor=#000000;" vertex="1" parent="1">
          <mxGeometry x="-1990" y="56.51" width="287" height="140" as="geometry" />
        </mxCell>
        <mxCell id="Tkxw26_hyXx5wk3KDLGs-34" value="" style="shape=partialRectangle;html=1;whiteSpace=wrap;collapsible=0;dropTarget=0;pointerEvents=0;fillColor=#33FF33;top=0;left=0;bottom=0;right=0;points=[[0,0.5],[1,0.5]];portConstraint=eastwest;fontStyle=1;align=left;fontColor=#000000;" vertex="1" parent="Tkxw26_hyXx5wk3KDLGs-33">
          <mxGeometry width="287" height="20" as="geometry" />
        </mxCell>
        <mxCell id="Tkxw26_hyXx5wk3KDLGs-35" value="&lt;div&gt;&amp;nbsp; UseDescription :&amp;nbsp;&amp;nbsp;ULONGLONG&lt;/div&gt;" style="shape=partialRectangle;html=1;whiteSpace=wrap;connectable=0;fillColor=#FCE5F4;top=0;left=0;bottom=0;right=0;overflow=hidden;strokeColor=#001DBC;fontColor=#000000;fontStyle=1;align=left;" vertex="1" parent="Tkxw26_hyXx5wk3KDLGs-34">
          <mxGeometry width="287" height="20" as="geometry">
            <mxRectangle width="287" height="20" as="alternateBounds" />
          </mxGeometry>
        </mxCell>
        <mxCell id="Tkxw26_hyXx5wk3KDLGs-36" value="" style="shape=partialRectangle;html=1;whiteSpace=wrap;collapsible=0;dropTarget=0;pointerEvents=0;fillColor=#33FF33;top=0;left=0;bottom=0;right=0;points=[[0,0.5],[1,0.5]];portConstraint=eastwest;fontStyle=1;align=left;fontColor=#000000;" vertex="1" parent="Tkxw26_hyXx5wk3KDLGs-33">
          <mxGeometry y="20" width="287" height="20" as="geometry" />
        </mxCell>
        <mxCell id="Tkxw26_hyXx5wk3KDLGs-37" value="&lt;div&gt;&amp;nbsp; ListDescription :&amp;nbsp;ULONGLONG&lt;br&gt;&lt;/div&gt;" style="shape=partialRectangle;html=1;whiteSpace=wrap;connectable=0;fillColor=#E6D0DE;top=0;left=0;bottom=0;right=0;overflow=hidden;strokeColor=#001DBC;fontStyle=1;fontColor=#000000;align=left;" vertex="1" parent="Tkxw26_hyXx5wk3KDLGs-36">
          <mxGeometry width="287" height="20" as="geometry">
            <mxRectangle width="287" height="20" as="alternateBounds" />
          </mxGeometry>
        </mxCell>
        <mxCell id="Tkxw26_hyXx5wk3KDLGs-38" value="" style="shape=partialRectangle;html=1;whiteSpace=wrap;collapsible=0;dropTarget=0;pointerEvents=0;fillColor=#33FF33;top=0;left=0;bottom=0;right=0;points=[[0,0.5],[1,0.5]];portConstraint=eastwest;fontStyle=1;align=left;fontColor=#000000;" vertex="1" parent="Tkxw26_hyXx5wk3KDLGs-33">
          <mxGeometry y="40" width="287" height="20" as="geometry" />
        </mxCell>
        <mxCell id="Tkxw26_hyXx5wk3KDLGs-39" value="&amp;nbsp; Reserved0 :&amp;nbsp;ULONGLONG" style="shape=partialRectangle;html=1;whiteSpace=wrap;connectable=0;fillColor=#E6D0DE;top=0;left=0;bottom=0;right=0;overflow=hidden;strokeColor=#001DBC;fontColor=#000000;fontStyle=1;align=left;" vertex="1" parent="Tkxw26_hyXx5wk3KDLGs-38">
          <mxGeometry width="287" height="20" as="geometry">
            <mxRectangle width="287" height="20" as="alternateBounds" />
          </mxGeometry>
        </mxCell>
        <mxCell id="Tkxw26_hyXx5wk3KDLGs-40" style="shape=partialRectangle;html=1;whiteSpace=wrap;collapsible=0;dropTarget=0;pointerEvents=0;fillColor=#33FF33;top=0;left=0;bottom=0;right=0;points=[[0,0.5],[1,0.5]];portConstraint=eastwest;fontStyle=1;align=left;fontColor=#000000;" vertex="1" parent="Tkxw26_hyXx5wk3KDLGs-33">
          <mxGeometry y="60" width="287" height="20" as="geometry" />
        </mxCell>
        <mxCell id="Tkxw26_hyXx5wk3KDLGs-41" value="&amp;nbsp; Pinned :&amp;nbsp;ULONGLONG" style="shape=partialRectangle;html=1;whiteSpace=wrap;connectable=0;fillColor=#E6D0DE;top=0;left=0;bottom=0;right=0;overflow=hidden;strokeColor=#001DBC;fontStyle=1;fontColor=#000000;align=left;" vertex="1" parent="Tkxw26_hyXx5wk3KDLGs-40">
          <mxGeometry width="287" height="20" as="geometry">
            <mxRectangle width="287" height="20" as="alternateBounds" />
          </mxGeometry>
        </mxCell>
        <mxCell id="Tkxw26_hyXx5wk3KDLGs-42" style="shape=partialRectangle;html=1;whiteSpace=wrap;collapsible=0;dropTarget=0;pointerEvents=0;fillColor=#33FF33;top=0;left=0;bottom=0;right=0;points=[[0,0.5],[1,0.5]];portConstraint=eastwest;fontStyle=1;align=left;fontColor=#000000;" vertex="1" parent="Tkxw26_hyXx5wk3KDLGs-33">
          <mxGeometry y="80" width="287" height="20" as="geometry" />
        </mxCell>
        <mxCell id="Tkxw26_hyXx5wk3KDLGs-43" value="&amp;nbsp; DontUse :&amp;nbsp;ULONGLONG" style="shape=partialRectangle;html=1;whiteSpace=wrap;connectable=0;fillColor=#E6D0DE;top=0;left=0;bottom=0;right=0;overflow=hidden;strokeColor=#001DBC;fontStyle=1;fontColor=#000000;align=left;" vertex="1" parent="Tkxw26_hyXx5wk3KDLGs-42">
          <mxGeometry width="287" height="20" as="geometry">
            <mxRectangle width="287" height="20" as="alternateBounds" />
          </mxGeometry>
        </mxCell>
        <mxCell id="Tkxw26_hyXx5wk3KDLGs-44" style="shape=partialRectangle;html=1;whiteSpace=wrap;collapsible=0;dropTarget=0;pointerEvents=0;fillColor=#33FF33;top=0;left=0;bottom=0;right=0;points=[[0,0.5],[1,0.5]];portConstraint=eastwest;fontStyle=1;align=left;fontColor=#000000;" vertex="1" parent="Tkxw26_hyXx5wk3KDLGs-33">
          <mxGeometry y="100" width="287" height="20" as="geometry" />
        </mxCell>
        <mxCell id="Tkxw26_hyXx5wk3KDLGs-45" value="&amp;nbsp; Priority :&amp;nbsp;ULONGLONG" style="shape=partialRectangle;html=1;whiteSpace=wrap;connectable=0;fillColor=#E6D0DE;top=0;left=0;bottom=0;right=0;overflow=hidden;strokeColor=#001DBC;fontStyle=1;fontColor=#000000;align=left;" vertex="1" parent="Tkxw26_hyXx5wk3KDLGs-44">
          <mxGeometry width="287" height="20" as="geometry">
            <mxRectangle width="287" height="20" as="alternateBounds" />
          </mxGeometry>
        </mxCell>
        <mxCell id="Tkxw26_hyXx5wk3KDLGs-46" style="shape=partialRectangle;html=1;whiteSpace=wrap;collapsible=0;dropTarget=0;pointerEvents=0;fillColor=#33FF33;top=0;left=0;bottom=0;right=0;points=[[0,0.5],[1,0.5]];portConstraint=eastwest;fontStyle=1;align=left;fontColor=#000000;" vertex="1" parent="Tkxw26_hyXx5wk3KDLGs-33">
          <mxGeometry y="120" width="287" height="20" as="geometry" />
        </mxCell>
        <mxCell id="Tkxw26_hyXx5wk3KDLGs-47" value="&amp;nbsp; Reserved :&amp;nbsp;ULONGLONG" style="shape=partialRectangle;html=1;whiteSpace=wrap;connectable=0;fillColor=#E6D0DE;top=0;left=0;bottom=0;right=0;overflow=hidden;strokeColor=#001DBC;fontStyle=1;fontColor=#000000;align=left;" vertex="1" parent="Tkxw26_hyXx5wk3KDLGs-46">
          <mxGeometry width="287" height="20" as="geometry">
            <mxRectangle width="287" height="20" as="alternateBounds" />
          </mxGeometry>
        </mxCell>
        <mxCell id="Tkxw26_hyXx5wk3KDLGs-48" value="&lt;div style=&quot;font-size: 12px;&quot;&gt;Structure&lt;/div&gt;&lt;div style=&quot;&quot;&gt;&lt;pre style=&quot;&quot;&gt;&lt;font face=&quot;Consolas&quot; color=&quot;#1e1e1e&quot;&gt;MEMORY_FRAME_INFORMATION&lt;/font&gt;&lt;font face=&quot;Consolas&quot;&gt;&lt;br&gt;&lt;/font&gt;&lt;/pre&gt;&lt;/div&gt;" style="text;strokeColor=none;fillColor=none;html=1;fontSize=12;fontStyle=1;verticalAlign=middle;align=center;" vertex="1" parent="1">
          <mxGeometry x="-1950" y="23.50999999999999" width="230" height="25.491329479768783" as="geometry" />
        </mxCell>
        <mxCell id="Tkxw26_hyXx5wk3KDLGs-49" value="" style="edgeStyle=entityRelationEdgeStyle;startArrow=none;endArrow=none;segment=10;curved=1;rounded=0;strokeColor=#FF0000;strokeWidth=4;fontSize=12;fontColor=#000000;exitX=0;exitY=0.25;exitDx=0;exitDy=0;entryX=1;entryY=0.5;entryDx=0;entryDy=0;" edge="1" parent="1" source="Tkxw26_hyXx5wk3KDLGs-50" target="Tkxw26_hyXx5wk3KDLGs-34">
          <mxGeometry relative="1" as="geometry">
            <mxPoint x="-1530" y="43.50999999999999" as="sourcePoint" />
          </mxGeometry>
        </mxCell>
        <mxCell id="Tkxw26_hyXx5wk3KDLGs-50" value="&lt;div&gt;//&lt;/div&gt;&lt;div&gt;// PFN Identity Uses&lt;/div&gt;&lt;div&gt;//&lt;/div&gt;&lt;div&gt;#define &lt;b&gt;&lt;font color=&quot;#ff0000&quot;&gt;MMPFNUSE_PROCESSPRIVATE&lt;/font&gt;&lt;/b&gt;&amp;nbsp; &amp;nbsp; 0&lt;/div&gt;&lt;div&gt;#define MMPFNUSE_FILE&amp;nbsp; &amp;nbsp; &amp;nbsp; &amp;nbsp; &amp;nbsp; &amp;nbsp; &amp;nbsp; &amp;nbsp; &amp;nbsp; &amp;nbsp; &amp;nbsp; &amp;nbsp; &amp;nbsp; &amp;nbsp; &amp;nbsp;1&lt;/div&gt;&lt;div&gt;#define MMPFNUSE_PAGEFILEMAPPED&amp;nbsp; &amp;nbsp; 2&lt;/div&gt;&lt;div&gt;#define MMPFNUSE_PAGETABLE&amp;nbsp; &amp;nbsp; &amp;nbsp; &amp;nbsp; &amp;nbsp; &amp;nbsp; &amp;nbsp; &amp;nbsp; 3&lt;/div&gt;&lt;div&gt;#define MMPFNUSE_PAGEDPOOL&amp;nbsp; &amp;nbsp; &amp;nbsp; &amp;nbsp; &amp;nbsp; &amp;nbsp; &amp;nbsp; 4&lt;/div&gt;&lt;div&gt;#define MMPFNUSE_NONPAGEDPOOL&amp;nbsp; &amp;nbsp; &amp;nbsp; 5&lt;/div&gt;&lt;div&gt;#define MMPFNUSE_SYSTEMPTE&amp;nbsp; &amp;nbsp; &amp;nbsp; &amp;nbsp; &amp;nbsp; &amp;nbsp; &amp;nbsp; &amp;nbsp;6&lt;/div&gt;&lt;div&gt;#define MMPFNUSE_SESSIONPRIVATE&amp;nbsp; &amp;nbsp; &amp;nbsp; 7&lt;/div&gt;&lt;div&gt;#define MMPFNUSE_METAFILE&amp;nbsp; &amp;nbsp; &amp;nbsp; &amp;nbsp; &amp;nbsp; &amp;nbsp; &amp;nbsp; &amp;nbsp; &amp;nbsp; &amp;nbsp; 8&lt;/div&gt;&lt;div&gt;#define MMPFNUSE_AWEPAGE&amp;nbsp; &amp;nbsp; &amp;nbsp; &amp;nbsp; &amp;nbsp; &amp;nbsp; &amp;nbsp; &amp;nbsp; &amp;nbsp; &amp;nbsp;9&lt;/div&gt;&lt;div&gt;#define MMPFNUSE_DRIVERLOCKPAGE&amp;nbsp; &amp;nbsp; 10&lt;/div&gt;&lt;div&gt;#define MMPFNUSE_KERNELSTACK&amp;nbsp; &amp;nbsp; &amp;nbsp; &amp;nbsp; &amp;nbsp; &amp;nbsp;11&lt;/div&gt;" style="text;whiteSpace=wrap;html=1;" vertex="1" parent="1">
          <mxGeometry x="-1654" width="359" height="234.51" as="geometry" />
        </mxCell>
        <mxCell id="Tkxw26_hyXx5wk3KDLGs-51" value="" style="shape=table;html=1;whiteSpace=wrap;startSize=0;container=1;collapsible=0;childLayout=tableLayout;fontStyle=1;align=left;fillColor=#33FFFF;strokeColor=#6c8ebf;fontColor=#000000;" vertex="1" parent="1">
          <mxGeometry x="-3280" y="56" width="360" height="150" as="geometry" />
        </mxCell>
        <mxCell id="Tkxw26_hyXx5wk3KDLGs-52" value="" style="shape=partialRectangle;html=1;whiteSpace=wrap;collapsible=0;dropTarget=0;pointerEvents=0;fillColor=#33FFFF;top=0;left=0;bottom=0;right=0;points=[[0,0.5],[1,0.5]];portConstraint=eastwest;fontStyle=1;align=left;fontColor=#000000;" vertex="1" parent="Tkxw26_hyXx5wk3KDLGs-51">
          <mxGeometry width="360" height="30" as="geometry" />
        </mxCell>
        <mxCell id="Tkxw26_hyXx5wk3KDLGs-53" value="&lt;div&gt;Version&amp;nbsp; &amp;nbsp; &amp;nbsp; &amp;nbsp;: ulong&lt;/div&gt;" style="shape=partialRectangle;html=1;whiteSpace=wrap;connectable=0;fillColor=#33FFFF;top=0;left=0;bottom=0;right=0;overflow=hidden;strokeColor=#001DBC;fontColor=#000000;fontStyle=1;align=left;" vertex="1" parent="Tkxw26_hyXx5wk3KDLGs-52">
          <mxGeometry width="360" height="30" as="geometry">
            <mxRectangle width="360" height="30" as="alternateBounds" />
          </mxGeometry>
        </mxCell>
        <mxCell id="Tkxw26_hyXx5wk3KDLGs-54" value="" style="shape=partialRectangle;html=1;whiteSpace=wrap;collapsible=0;dropTarget=0;pointerEvents=0;fillColor=#33FFFF;top=0;left=0;bottom=0;right=0;points=[[0,0.5],[1,0.5]];portConstraint=eastwest;fontStyle=1;align=left;fontColor=#000000;" vertex="1" parent="Tkxw26_hyXx5wk3KDLGs-51">
          <mxGeometry y="30" width="360" height="30" as="geometry" />
        </mxCell>
        <mxCell id="Tkxw26_hyXx5wk3KDLGs-55" value="&lt;div&gt;Magic&amp;nbsp;&amp;nbsp;&amp;nbsp; : ulong&lt;br&gt;&lt;/div&gt;" style="shape=partialRectangle;html=1;whiteSpace=wrap;connectable=0;fillColor=#33FFFF;top=0;left=0;bottom=0;right=0;overflow=hidden;strokeColor=#001DBC;fontStyle=1;fontColor=#000000;align=left;" vertex="1" parent="Tkxw26_hyXx5wk3KDLGs-54">
          <mxGeometry width="360" height="30" as="geometry">
            <mxRectangle width="360" height="30" as="alternateBounds" />
          </mxGeometry>
        </mxCell>
        <mxCell id="Tkxw26_hyXx5wk3KDLGs-56" value="" style="shape=partialRectangle;html=1;whiteSpace=wrap;collapsible=0;dropTarget=0;pointerEvents=0;fillColor=#33FFFF;top=0;left=0;bottom=0;right=0;points=[[0,0.5],[1,0.5]];portConstraint=eastwest;fontStyle=1;align=left;fontColor=#000000;" vertex="1" parent="Tkxw26_hyXx5wk3KDLGs-51">
          <mxGeometry y="60" width="360" height="30" as="geometry" />
        </mxCell>
        <mxCell id="Tkxw26_hyXx5wk3KDLGs-57" value="InfoClass : SUPERFETCH_INFORMATION_CLASS" style="shape=partialRectangle;html=1;whiteSpace=wrap;connectable=0;fillColor=#33FFFF;top=0;left=0;bottom=0;right=0;overflow=hidden;strokeColor=#001DBC;fontColor=#000000;fontStyle=1;align=left;" vertex="1" parent="Tkxw26_hyXx5wk3KDLGs-56">
          <mxGeometry width="360" height="30" as="geometry">
            <mxRectangle width="360" height="30" as="alternateBounds" />
          </mxGeometry>
        </mxCell>
        <mxCell id="Tkxw26_hyXx5wk3KDLGs-58" style="shape=partialRectangle;html=1;whiteSpace=wrap;collapsible=0;dropTarget=0;pointerEvents=0;fillColor=#33FFFF;top=0;left=0;bottom=0;right=0;points=[[0,0.5],[1,0.5]];portConstraint=eastwest;fontStyle=1;align=left;fontColor=#000000;" vertex="1" parent="Tkxw26_hyXx5wk3KDLGs-51">
          <mxGeometry y="90" width="360" height="30" as="geometry" />
        </mxCell>
        <mxCell id="Tkxw26_hyXx5wk3KDLGs-59" value="&lt;b style=&quot;border-color: var(--border-color);&quot;&gt;MmPfnDatabase&lt;/b&gt;&amp;nbsp;&amp;nbsp; &amp;nbsp;:&amp;nbsp;PPF_PFN_PRIO_REQUEST" style="shape=partialRectangle;html=1;whiteSpace=wrap;connectable=0;fillColor=#23B0B0;top=0;left=0;bottom=0;right=0;overflow=hidden;strokeColor=#001DBC;fontStyle=1;fontColor=#000000;align=left;" vertex="1" parent="Tkxw26_hyXx5wk3KDLGs-58">
          <mxGeometry width="360" height="30" as="geometry">
            <mxRectangle width="360" height="30" as="alternateBounds" />
          </mxGeometry>
        </mxCell>
        <mxCell id="Tkxw26_hyXx5wk3KDLGs-60" style="shape=partialRectangle;html=1;whiteSpace=wrap;collapsible=0;dropTarget=0;pointerEvents=0;fillColor=#33FFFF;top=0;left=0;bottom=0;right=0;points=[[0,0.5],[1,0.5]];portConstraint=eastwest;fontStyle=1;align=left;fontColor=#000000;" vertex="1" parent="Tkxw26_hyXx5wk3KDLGs-51">
          <mxGeometry y="120" width="360" height="30" as="geometry" />
        </mxCell>
        <mxCell id="Tkxw26_hyXx5wk3KDLGs-61" value="Length&amp;nbsp; &amp;nbsp; &amp;nbsp; &amp;nbsp; &amp;nbsp; &amp;nbsp;: ulong" style="shape=partialRectangle;html=1;whiteSpace=wrap;connectable=0;fillColor=#33FFFF;top=0;left=0;bottom=0;right=0;overflow=hidden;strokeColor=#001DBC;fontColor=#000000;fontStyle=1;align=left;" vertex="1" parent="Tkxw26_hyXx5wk3KDLGs-60">
          <mxGeometry width="360" height="30" as="geometry">
            <mxRectangle width="360" height="30" as="alternateBounds" />
          </mxGeometry>
        </mxCell>
        <mxCell id="Tkxw26_hyXx5wk3KDLGs-62" value="&lt;div style=&quot;border-color: var(--border-color); color: rgb(0, 0, 0); font-family: Helvetica; font-size: 12px; font-style: normal; font-variant-ligatures: normal; font-variant-caps: normal; font-weight: 700; letter-spacing: normal; orphans: 2; text-align: center; text-indent: 0px; text-transform: none; widows: 2; word-spacing: 0px; -webkit-text-stroke-width: 0px; background-color: rgb(251, 251, 251); text-decoration-thickness: initial; text-decoration-style: initial; text-decoration-color: initial;&quot;&gt;Structure&lt;/div&gt;&lt;div style=&quot;border-color: var(--border-color); color: rgb(0, 0, 0); font-family: Helvetica; font-size: 12px; font-style: normal; font-variant-ligatures: normal; font-variant-caps: normal; font-weight: 700; letter-spacing: normal; orphans: 2; text-align: center; text-indent: 0px; text-transform: none; widows: 2; word-spacing: 0px; -webkit-text-stroke-width: 0px; background-color: rgb(251, 251, 251); text-decoration-thickness: initial; text-decoration-style: initial; text-decoration-color: initial;&quot;&gt;&lt;pre style=&quot;border-color: var(--border-color);&quot;&gt;&lt;span style=&quot;border-color: var(--border-color); background-color: rgb(255, 255, 255);&quot;&gt;&lt;font color=&quot;#1e1e1e&quot; face=&quot;Consolas&quot; style=&quot;border-color: var(--border-color);&quot;&gt;SUPERFETCH_INFORMATION&lt;/font&gt;&lt;/span&gt;&lt;/pre&gt;&lt;/div&gt;" style="text;whiteSpace=wrap;html=1;" vertex="1" parent="1">
          <mxGeometry x="-3205" width="210" height="90" as="geometry" />
        </mxCell>
        <mxCell id="Tkxw26_hyXx5wk3KDLGs-63" value="" style="endArrow=classic;html=1;rounded=0;fontSize=12;fontColor=#000000;edgeStyle=orthogonalEdgeStyle;exitX=1;exitY=0.5;exitDx=0;exitDy=0;fillColor=#d5e8d4;strokeColor=#0000FF;strokeWidth=4;entryX=0;entryY=0.5;entryDx=0;entryDy=0;" edge="1" parent="1" source="Tkxw26_hyXx5wk3KDLGs-58" target="Tkxw26_hyXx5wk3KDLGs-65">
          <mxGeometry width="50" height="50" relative="1" as="geometry">
            <mxPoint x="-3011" y="382.51" as="sourcePoint" />
            <mxPoint x="-2800" y="222.51" as="targetPoint" />
          </mxGeometry>
        </mxCell>
        <mxCell id="Tkxw26_hyXx5wk3KDLGs-64" value="" style="shape=table;html=1;whiteSpace=wrap;startSize=0;container=1;collapsible=0;childLayout=tableLayout;fontStyle=1;align=left;fillColor=#33FF33;strokeColor=#6c8ebf;fontColor=#000000;" vertex="1" parent="1">
          <mxGeometry x="-2840" y="61.48" width="310" height="150" as="geometry" />
        </mxCell>
        <mxCell id="Tkxw26_hyXx5wk3KDLGs-65" value="" style="shape=partialRectangle;html=1;whiteSpace=wrap;collapsible=0;dropTarget=0;pointerEvents=0;fillColor=#33FF33;top=0;left=0;bottom=0;right=0;points=[[0,0.5],[1,0.5]];portConstraint=eastwest;fontStyle=1;align=left;fontColor=#000000;" vertex="1" parent="Tkxw26_hyXx5wk3KDLGs-64">
          <mxGeometry width="310" height="30" as="geometry" />
        </mxCell>
        <mxCell id="Tkxw26_hyXx5wk3KDLGs-66" value="&lt;div&gt;Version&amp;nbsp; &amp;nbsp; &amp;nbsp; &amp;nbsp; &amp;nbsp; &amp;nbsp; : ULONG&lt;/div&gt;" style="shape=partialRectangle;html=1;whiteSpace=wrap;connectable=0;fillColor=#33FF33;top=0;left=0;bottom=0;right=0;overflow=hidden;strokeColor=#001DBC;fontColor=#000000;fontStyle=1;align=left;" vertex="1" parent="Tkxw26_hyXx5wk3KDLGs-65">
          <mxGeometry width="310" height="30" as="geometry">
            <mxRectangle width="310" height="30" as="alternateBounds" />
          </mxGeometry>
        </mxCell>
        <mxCell id="Tkxw26_hyXx5wk3KDLGs-67" value="" style="shape=partialRectangle;html=1;whiteSpace=wrap;collapsible=0;dropTarget=0;pointerEvents=0;fillColor=#33FF33;top=0;left=0;bottom=0;right=0;points=[[0,0.5],[1,0.5]];portConstraint=eastwest;fontStyle=1;align=left;fontColor=#000000;" vertex="1" parent="Tkxw26_hyXx5wk3KDLGs-64">
          <mxGeometry y="30" width="310" height="30" as="geometry" />
        </mxCell>
        <mxCell id="Tkxw26_hyXx5wk3KDLGs-68" value="&lt;div&gt;RequestFlags&amp;nbsp; &amp;nbsp; &amp;nbsp; &amp;nbsp; &amp;nbsp; &amp;nbsp; : ULONG&lt;br&gt;&lt;/div&gt;" style="shape=partialRectangle;html=1;whiteSpace=wrap;connectable=0;fillColor=#33FF33;top=0;left=0;bottom=0;right=0;overflow=hidden;strokeColor=#001DBC;fontStyle=1;fontColor=#000000;align=left;" vertex="1" parent="Tkxw26_hyXx5wk3KDLGs-67">
          <mxGeometry width="310" height="30" as="geometry">
            <mxRectangle width="310" height="30" as="alternateBounds" />
          </mxGeometry>
        </mxCell>
        <mxCell id="Tkxw26_hyXx5wk3KDLGs-69" value="" style="shape=partialRectangle;html=1;whiteSpace=wrap;collapsible=0;dropTarget=0;pointerEvents=0;fillColor=#33FF33;top=0;left=0;bottom=0;right=0;points=[[0,0.5],[1,0.5]];portConstraint=eastwest;fontStyle=1;align=left;fontColor=#000000;" vertex="1" parent="Tkxw26_hyXx5wk3KDLGs-64">
          <mxGeometry y="60" width="310" height="30" as="geometry" />
        </mxCell>
        <mxCell id="Tkxw26_hyXx5wk3KDLGs-70" value="PfnCount&amp;nbsp; &amp;nbsp; &amp;nbsp; &amp;nbsp; &amp;nbsp; &amp;nbsp;: SIZE_T" style="shape=partialRectangle;html=1;whiteSpace=wrap;connectable=0;fillColor=#33FF33;top=0;left=0;bottom=0;right=0;overflow=hidden;strokeColor=#001DBC;fontColor=#000000;fontStyle=1;align=left;" vertex="1" parent="Tkxw26_hyXx5wk3KDLGs-69">
          <mxGeometry width="310" height="30" as="geometry">
            <mxRectangle width="310" height="30" as="alternateBounds" />
          </mxGeometry>
        </mxCell>
        <mxCell id="Tkxw26_hyXx5wk3KDLGs-71" style="shape=partialRectangle;html=1;whiteSpace=wrap;collapsible=0;dropTarget=0;pointerEvents=0;fillColor=#33FF33;top=0;left=0;bottom=0;right=0;points=[[0,0.5],[1,0.5]];portConstraint=eastwest;fontStyle=1;align=left;fontColor=#000000;" vertex="1" parent="Tkxw26_hyXx5wk3KDLGs-64">
          <mxGeometry y="90" width="310" height="30" as="geometry" />
        </mxCell>
        <mxCell id="Tkxw26_hyXx5wk3KDLGs-72" value="MemInfo : SYSTEM_MEMORY_LIST_INFORMATION&amp;nbsp;" style="shape=partialRectangle;html=1;whiteSpace=wrap;connectable=0;fillColor=#33FF33;top=0;left=0;bottom=0;right=0;overflow=hidden;strokeColor=#001DBC;fontStyle=1;fontColor=#000000;align=left;" vertex="1" parent="Tkxw26_hyXx5wk3KDLGs-71">
          <mxGeometry width="310" height="30" as="geometry">
            <mxRectangle width="310" height="30" as="alternateBounds" />
          </mxGeometry>
        </mxCell>
        <mxCell id="Tkxw26_hyXx5wk3KDLGs-73" style="shape=partialRectangle;html=1;whiteSpace=wrap;collapsible=0;dropTarget=0;pointerEvents=0;fillColor=#33FF33;top=0;left=0;bottom=0;right=0;points=[[0,0.5],[1,0.5]];portConstraint=eastwest;fontStyle=1;align=left;fontColor=#000000;" vertex="1" parent="Tkxw26_hyXx5wk3KDLGs-64">
          <mxGeometry y="120" width="310" height="30" as="geometry" />
        </mxCell>
        <mxCell id="Tkxw26_hyXx5wk3KDLGs-74" value="PageData : PMMPFN_IDENTITY&amp;nbsp;" style="shape=partialRectangle;html=1;whiteSpace=wrap;connectable=0;fillColor=#28C728;top=0;left=0;bottom=0;right=0;overflow=hidden;strokeColor=#001DBC;fontStyle=1;fontColor=#000000;align=left;" vertex="1" parent="Tkxw26_hyXx5wk3KDLGs-73">
          <mxGeometry width="310" height="30" as="geometry">
            <mxRectangle width="310" height="30" as="alternateBounds" />
          </mxGeometry>
        </mxCell>
        <mxCell id="Tkxw26_hyXx5wk3KDLGs-75" value="&lt;div style=&quot;font-size: 12px;&quot;&gt;Structure&lt;/div&gt;&lt;div style=&quot;&quot;&gt;&lt;pre style=&quot;&quot;&gt;PF_PFN_PRIO_REQUEST&lt;font face=&quot;Consolas&quot;&gt;&lt;br&gt;&lt;/font&gt;&lt;/pre&gt;&lt;/div&gt;" style="text;strokeColor=none;fillColor=none;html=1;fontSize=12;fontStyle=1;verticalAlign=middle;align=center;" vertex="1" parent="1">
          <mxGeometry x="-2835.5" y="-1.4210854715202004e-14" width="230" height="70" as="geometry" />
        </mxCell>
        <mxCell id="Tkxw26_hyXx5wk3KDLGs-76" value="" style="shape=table;html=1;whiteSpace=wrap;startSize=0;container=1;collapsible=0;childLayout=tableLayout;fontStyle=1;align=left;fillColor=#33FFFF;strokeColor=#6c8ebf;fontColor=#000000;" vertex="1" parent="1">
          <mxGeometry x="-2430" y="53" width="360" height="330.01" as="geometry" />
        </mxCell>
        <mxCell id="Tkxw26_hyXx5wk3KDLGs-77" value="" style="shape=partialRectangle;html=1;whiteSpace=wrap;collapsible=0;dropTarget=0;pointerEvents=0;fillColor=#33FFFF;top=0;left=0;bottom=0;right=0;points=[[0,0.5],[1,0.5]];portConstraint=eastwest;fontStyle=1;align=left;fontColor=#000000;" vertex="1" parent="Tkxw26_hyXx5wk3KDLGs-76">
          <mxGeometry width="360" height="30" as="geometry" />
        </mxCell>
        <mxCell id="Tkxw26_hyXx5wk3KDLGs-78" value="&amp;nbsp; e1 : &lt;span style=&quot;white-space: pre;&quot;&gt;&#x9;&lt;/span&gt;MEMORY_FRAME_INFORMATION" style="shape=partialRectangle;html=1;whiteSpace=wrap;connectable=0;fillColor=#7F7FD4;top=0;left=0;bottom=0;right=0;overflow=hidden;strokeColor=#001DBC;fontColor=#000000;fontStyle=1;align=left;" vertex="1" parent="Tkxw26_hyXx5wk3KDLGs-77">
          <mxGeometry width="360" height="30" as="geometry">
            <mxRectangle width="360" height="30" as="alternateBounds" />
          </mxGeometry>
        </mxCell>
        <mxCell id="Tkxw26_hyXx5wk3KDLGs-79" value="" style="shape=partialRectangle;html=1;whiteSpace=wrap;collapsible=0;dropTarget=0;pointerEvents=0;fillColor=#33FFFF;top=0;left=0;bottom=0;right=0;points=[[0,0.5],[1,0.5]];portConstraint=eastwest;fontStyle=1;align=left;fontColor=#000000;" vertex="1" parent="Tkxw26_hyXx5wk3KDLGs-76">
          <mxGeometry y="30" width="360" height="30" as="geometry" />
        </mxCell>
        <mxCell id="Tkxw26_hyXx5wk3KDLGs-80" value="&lt;div&gt;&amp;nbsp; e2 :&lt;span style=&quot;white-space: pre;&quot;&gt;&#x9;&lt;/span&gt;&amp;nbsp;FILEOFFSET_INFORMATION&lt;br&gt;&lt;/div&gt;" style="shape=partialRectangle;html=1;whiteSpace=wrap;connectable=0;fillColor=#9999FF;top=0;left=0;bottom=0;right=0;overflow=hidden;strokeColor=#001DBC;fontStyle=1;fontColor=#000000;align=left;" vertex="1" parent="Tkxw26_hyXx5wk3KDLGs-79">
          <mxGeometry width="360" height="30" as="geometry">
            <mxRectangle width="360" height="30" as="alternateBounds" />
          </mxGeometry>
        </mxCell>
        <mxCell id="Tkxw26_hyXx5wk3KDLGs-81" value="" style="shape=partialRectangle;html=1;whiteSpace=wrap;collapsible=0;dropTarget=0;pointerEvents=0;fillColor=#33FFFF;top=0;left=0;bottom=0;right=0;points=[[0,0.5],[1,0.5]];portConstraint=eastwest;fontStyle=1;align=left;fontColor=#000000;" vertex="1" parent="Tkxw26_hyXx5wk3KDLGs-76">
          <mxGeometry y="60" width="360" height="30" as="geometry" />
        </mxCell>
        <mxCell id="Tkxw26_hyXx5wk3KDLGs-82" value="&amp;nbsp; e3 :&lt;span style=&quot;&quot;&gt;&lt;span style=&quot;white-space: pre;&quot;&gt;&amp;nbsp;&amp;nbsp;&amp;nbsp;&amp;nbsp;&lt;span style=&quot;white-space: pre;&quot;&gt;&#x9;&lt;/span&gt;&lt;/span&gt;&lt;/span&gt;PAGEDIR_INFORMATION" style="shape=partialRectangle;html=1;whiteSpace=wrap;connectable=0;fillColor=#9999FF;top=0;left=0;bottom=0;right=0;overflow=hidden;strokeColor=#001DBC;fontColor=#000000;fontStyle=1;align=left;" vertex="1" parent="Tkxw26_hyXx5wk3KDLGs-81">
          <mxGeometry width="360" height="30" as="geometry">
            <mxRectangle width="360" height="30" as="alternateBounds" />
          </mxGeometry>
        </mxCell>
        <mxCell id="Tkxw26_hyXx5wk3KDLGs-83" style="shape=partialRectangle;html=1;whiteSpace=wrap;collapsible=0;dropTarget=0;pointerEvents=0;fillColor=#33FFFF;top=0;left=0;bottom=0;right=0;points=[[0,0.5],[1,0.5]];portConstraint=eastwest;fontStyle=1;align=left;fontColor=#000000;" vertex="1" parent="Tkxw26_hyXx5wk3KDLGs-76">
          <mxGeometry y="90" width="360" height="30" as="geometry" />
        </mxCell>
        <mxCell id="Tkxw26_hyXx5wk3KDLGs-84" value="&amp;nbsp; e4 :&amp;nbsp;&lt;span style=&quot;&quot;&gt;&lt;span style=&quot;white-space: pre;&quot;&gt;&amp;nbsp;&amp;nbsp;&amp;nbsp;&amp;nbsp;&lt;span style=&quot;white-space: pre;&quot;&gt;&#x9;&lt;/span&gt;&lt;/span&gt;&lt;/span&gt;UNIQUE_PROCESS_INFORMATION" style="shape=partialRectangle;html=1;whiteSpace=wrap;connectable=0;fillColor=#7F7FD4;top=0;left=0;bottom=0;right=0;overflow=hidden;strokeColor=#001DBC;fontStyle=1;fontColor=#000000;align=left;" vertex="1" parent="Tkxw26_hyXx5wk3KDLGs-83">
          <mxGeometry width="360" height="30" as="geometry">
            <mxRectangle width="360" height="30" as="alternateBounds" />
          </mxGeometry>
        </mxCell>
        <mxCell id="Tkxw26_hyXx5wk3KDLGs-85" style="shape=partialRectangle;html=1;whiteSpace=wrap;collapsible=0;dropTarget=0;pointerEvents=0;fillColor=#33FFFF;top=0;left=0;bottom=0;right=0;points=[[0,0.5],[1,0.5]];portConstraint=eastwest;fontStyle=1;align=left;fontColor=#000000;" vertex="1" parent="Tkxw26_hyXx5wk3KDLGs-76">
          <mxGeometry y="120" width="360" height="30" as="geometry" />
        </mxCell>
        <mxCell id="Tkxw26_hyXx5wk3KDLGs-86" value="&amp;nbsp;pageFrameIndex : SIZE_T" style="shape=partialRectangle;html=1;whiteSpace=wrap;connectable=0;fillColor=#9999FF;top=0;left=0;bottom=0;right=0;overflow=hidden;strokeColor=#001DBC;fontColor=#000000;fontStyle=1;align=left;" vertex="1" parent="Tkxw26_hyXx5wk3KDLGs-85">
          <mxGeometry width="360" height="30" as="geometry">
            <mxRectangle width="360" height="30" as="alternateBounds" />
          </mxGeometry>
        </mxCell>
        <mxCell id="Tkxw26_hyXx5wk3KDLGs-87" style="shape=partialRectangle;html=1;whiteSpace=wrap;collapsible=0;dropTarget=0;pointerEvents=0;fillColor=#33FFFF;top=0;left=0;bottom=0;right=0;points=[[0,0.5],[1,0.5]];portConstraint=eastwest;fontStyle=1;align=left;fontColor=#000000;" vertex="1" parent="Tkxw26_hyXx5wk3KDLGs-76">
          <mxGeometry y="150" width="360" height="30" as="geometry" />
        </mxCell>
        <mxCell id="Tkxw26_hyXx5wk3KDLGs-88" value="&amp;nbsp;Image : ULONG" style="shape=partialRectangle;html=1;whiteSpace=wrap;connectable=0;fillColor=#9999FF;top=0;left=0;bottom=0;right=0;overflow=hidden;strokeColor=#001DBC;fontStyle=1;fontColor=#000000;align=left;" vertex="1" parent="Tkxw26_hyXx5wk3KDLGs-87">
          <mxGeometry width="360" height="30" as="geometry">
            <mxRectangle width="360" height="30" as="alternateBounds" />
          </mxGeometry>
        </mxCell>
        <mxCell id="Tkxw26_hyXx5wk3KDLGs-89" style="shape=partialRectangle;html=1;whiteSpace=wrap;collapsible=0;dropTarget=0;pointerEvents=0;fillColor=#33FFFF;top=0;left=0;bottom=0;right=0;points=[[0,0.5],[1,0.5]];portConstraint=eastwest;fontStyle=1;align=left;fontColor=#000000;" vertex="1" parent="Tkxw26_hyXx5wk3KDLGs-76">
          <mxGeometry y="180" width="360" height="30" as="geometry" />
        </mxCell>
        <mxCell id="Tkxw26_hyXx5wk3KDLGs-90" value="&amp;nbsp;Mismatch : ULONG" style="shape=partialRectangle;html=1;whiteSpace=wrap;connectable=0;fillColor=#9999FF;top=0;left=0;bottom=0;right=0;overflow=hidden;strokeColor=#001DBC;fontStyle=1;fontColor=#000000;align=left;" vertex="1" parent="Tkxw26_hyXx5wk3KDLGs-89">
          <mxGeometry width="360" height="30" as="geometry">
            <mxRectangle width="360" height="30" as="alternateBounds" />
          </mxGeometry>
        </mxCell>
        <mxCell id="Tkxw26_hyXx5wk3KDLGs-91" style="shape=partialRectangle;html=1;whiteSpace=wrap;collapsible=0;dropTarget=0;pointerEvents=0;fillColor=#33FFFF;top=0;left=0;bottom=0;right=0;points=[[0,0.5],[1,0.5]];portConstraint=eastwest;fontStyle=1;align=left;fontColor=#000000;" vertex="1" parent="Tkxw26_hyXx5wk3KDLGs-76">
          <mxGeometry y="210" width="360" height="30" as="geometry" />
        </mxCell>
        <mxCell id="Tkxw26_hyXx5wk3KDLGs-92" value="&amp;nbsp;FileObject : PVOID" style="shape=partialRectangle;html=1;whiteSpace=wrap;connectable=0;fillColor=#9999FF;top=0;left=0;bottom=0;right=0;overflow=hidden;strokeColor=#001DBC;fontStyle=1;fontColor=#000000;align=left;" vertex="1" parent="Tkxw26_hyXx5wk3KDLGs-91">
          <mxGeometry width="360" height="30" as="geometry">
            <mxRectangle width="360" height="30" as="alternateBounds" />
          </mxGeometry>
        </mxCell>
        <mxCell id="Tkxw26_hyXx5wk3KDLGs-93" style="shape=partialRectangle;html=1;whiteSpace=wrap;collapsible=0;dropTarget=0;pointerEvents=0;fillColor=#33FFFF;top=0;left=0;bottom=0;right=0;points=[[0,0.5],[1,0.5]];portConstraint=eastwest;fontStyle=1;align=left;fontColor=#000000;" vertex="1" parent="Tkxw26_hyXx5wk3KDLGs-76">
          <mxGeometry y="240" width="360" height="30" as="geometry" />
        </mxCell>
        <mxCell id="Tkxw26_hyXx5wk3KDLGs-94" value="&amp;nbsp;UniqueFileObjectKey : PVOID" style="shape=partialRectangle;html=1;whiteSpace=wrap;connectable=0;fillColor=#9999FF;top=0;left=0;bottom=0;right=0;overflow=hidden;strokeColor=#001DBC;fontStyle=1;fontColor=#000000;align=left;" vertex="1" parent="Tkxw26_hyXx5wk3KDLGs-93">
          <mxGeometry width="360" height="30" as="geometry">
            <mxRectangle width="360" height="30" as="alternateBounds" />
          </mxGeometry>
        </mxCell>
        <mxCell id="Tkxw26_hyXx5wk3KDLGs-95" style="shape=partialRectangle;html=1;whiteSpace=wrap;collapsible=0;dropTarget=0;pointerEvents=0;fillColor=#33FFFF;top=0;left=0;bottom=0;right=0;points=[[0,0.5],[1,0.5]];portConstraint=eastwest;fontStyle=1;align=left;fontColor=#000000;" vertex="1" parent="Tkxw26_hyXx5wk3KDLGs-76">
          <mxGeometry y="270" width="360" height="30" as="geometry" />
        </mxCell>
        <mxCell id="Tkxw26_hyXx5wk3KDLGs-96" value="&amp;nbsp;ProtoPteAddress : PVOID" style="shape=partialRectangle;html=1;whiteSpace=wrap;connectable=0;fillColor=#9999FF;top=0;left=0;bottom=0;right=0;overflow=hidden;strokeColor=#001DBC;fontStyle=1;fontColor=#000000;align=left;" vertex="1" parent="Tkxw26_hyXx5wk3KDLGs-95">
          <mxGeometry width="360" height="30" as="geometry">
            <mxRectangle width="360" height="30" as="alternateBounds" />
          </mxGeometry>
        </mxCell>
        <mxCell id="Tkxw26_hyXx5wk3KDLGs-97" style="shape=partialRectangle;html=1;whiteSpace=wrap;collapsible=0;dropTarget=0;pointerEvents=0;fillColor=#33FFFF;top=0;left=0;bottom=0;right=0;points=[[0,0.5],[1,0.5]];portConstraint=eastwest;fontStyle=1;align=left;fontColor=#000000;" vertex="1" parent="Tkxw26_hyXx5wk3KDLGs-76">
          <mxGeometry y="300" width="360" height="30" as="geometry" />
        </mxCell>
        <mxCell id="Tkxw26_hyXx5wk3KDLGs-98" value="&amp;nbsp;VirtualAddress : PVOID" style="shape=partialRectangle;html=1;whiteSpace=wrap;connectable=0;fillColor=#7F7FD4;top=0;left=0;bottom=0;right=0;overflow=hidden;strokeColor=#001DBC;fontStyle=1;fontColor=#000000;align=left;" vertex="1" parent="Tkxw26_hyXx5wk3KDLGs-97">
          <mxGeometry width="360" height="30" as="geometry">
            <mxRectangle width="360" height="30" as="alternateBounds" />
          </mxGeometry>
        </mxCell>
        <mxCell id="Tkxw26_hyXx5wk3KDLGs-99" value="&lt;div style=&quot;font-size: 12px;&quot;&gt;Structure&lt;/div&gt;&lt;div style=&quot;font-size: 12px;&quot;&gt;&lt;pre style=&quot;font-family: Consolas; font-size: 12px;&quot;&gt;MMPFN_IDENTITY&lt;br&gt;&lt;/pre&gt;&lt;/div&gt;" style="text;strokeColor=none;fillColor=none;html=1;fontSize=12;fontStyle=1;verticalAlign=middle;align=center;" vertex="1" parent="1">
          <mxGeometry x="-2360" width="170" height="70" as="geometry" />
        </mxCell>
        <mxCell id="Tkxw26_hyXx5wk3KDLGs-100" value="PageData[0]" style="endArrow=classic;html=1;rounded=0;fontSize=12;fontColor=#000000;edgeStyle=orthogonalEdgeStyle;exitX=1;exitY=0.5;exitDx=0;exitDy=0;fillColor=#d5e8d4;strokeColor=#0000FF;strokeWidth=4;entryX=0;entryY=0.5;entryDx=0;entryDy=0;" edge="1" parent="1" source="Tkxw26_hyXx5wk3KDLGs-73" target="Tkxw26_hyXx5wk3KDLGs-77">
          <mxGeometry width="50" height="50" relative="1" as="geometry">
            <mxPoint x="-2938" y="300.51" as="sourcePoint" />
            <mxPoint x="-2762" y="210.51" as="targetPoint" />
          </mxGeometry>
        </mxCell>
        <mxCell id="Tkxw26_hyXx5wk3KDLGs-102" value="Pfn1" style="text;whiteSpace=wrap;fontStyle=1" vertex="1" parent="1">
          <mxGeometry x="-2270" y="383.01" width="60" height="40" as="geometry" />
        </mxCell>
        <mxCell id="Tkxw26_hyXx5wk3KDLGs-103" value="" style="endArrow=none;dashed=1;html=1;dashPattern=1 3;strokeWidth=2;rounded=1;fontSize=12;fontColor=#000000;exitX=0.998;exitY=0.062;exitDx=0;exitDy=0;entryX=0;entryY=0;entryDx=0;entryDy=0;exitPerimeter=0;" edge="1" parent="1" source="Tkxw26_hyXx5wk3KDLGs-77" target="Tkxw26_hyXx5wk3KDLGs-33">
          <mxGeometry width="50" height="50" relative="1" as="geometry">
            <mxPoint x="-1975" y="175.51" as="sourcePoint" />
            <mxPoint x="-1932" y="116.50999999999999" as="targetPoint" />
          </mxGeometry>
        </mxCell>
        <mxCell id="Tkxw26_hyXx5wk3KDLGs-104" value="" style="endArrow=none;dashed=1;html=1;dashPattern=1 3;strokeWidth=2;rounded=1;fontSize=12;fontColor=#000000;exitX=0.997;exitY=1;exitDx=0;exitDy=0;entryX=0;entryY=1;entryDx=0;entryDy=0;exitPerimeter=0;" edge="1" parent="1" source="Tkxw26_hyXx5wk3KDLGs-77" target="Tkxw26_hyXx5wk3KDLGs-33">
          <mxGeometry width="50" height="50" relative="1" as="geometry">
            <mxPoint x="-1974" y="195.51" as="sourcePoint" />
            <mxPoint x="-1931" y="174.51" as="targetPoint" />
          </mxGeometry>
        </mxCell>
        <mxCell id="Tkxw26_hyXx5wk3KDLGs-105" value="" style="shape=table;html=1;whiteSpace=wrap;startSize=0;container=1;collapsible=0;childLayout=tableLayout;fontStyle=1;align=left;fillColor=#FFFF00;strokeColor=#6c8ebf;fontColor=#000000;" vertex="1" parent="1">
          <mxGeometry x="-1988" y="273.51" width="285" height="60" as="geometry" />
        </mxCell>
        <mxCell id="Tkxw26_hyXx5wk3KDLGs-106" value="" style="shape=partialRectangle;html=1;whiteSpace=wrap;collapsible=0;dropTarget=0;pointerEvents=0;fillColor=#FFFF00;top=0;left=0;bottom=0;right=0;points=[[0,0.5],[1,0.5]];portConstraint=eastwest;fontStyle=1;align=left;fontColor=#000000;" vertex="1" parent="Tkxw26_hyXx5wk3KDLGs-105">
          <mxGeometry width="285" height="20" as="geometry" />
        </mxCell>
        <mxCell id="Tkxw26_hyXx5wk3KDLGs-107" value="&amp;nbsp;DontUse : ULONLONG" style="shape=partialRectangle;html=1;whiteSpace=wrap;connectable=0;fillColor=#FF33FF;top=0;left=0;bottom=0;right=0;overflow=hidden;strokeColor=#001DBC;fontColor=#000000;fontStyle=1;align=left;" vertex="1" parent="Tkxw26_hyXx5wk3KDLGs-106">
          <mxGeometry width="285" height="20" as="geometry">
            <mxRectangle width="285" height="20" as="alternateBounds" />
          </mxGeometry>
        </mxCell>
        <mxCell id="Tkxw26_hyXx5wk3KDLGs-108" value="" style="shape=partialRectangle;html=1;whiteSpace=wrap;collapsible=0;dropTarget=0;pointerEvents=0;fillColor=#FFFF00;top=0;left=0;bottom=0;right=0;points=[[0,0.5],[1,0.5]];portConstraint=eastwest;fontStyle=1;align=left;fontColor=#000000;" vertex="1" parent="Tkxw26_hyXx5wk3KDLGs-105">
          <mxGeometry y="20" width="285" height="20" as="geometry" />
        </mxCell>
        <mxCell id="Tkxw26_hyXx5wk3KDLGs-109" value="&lt;div&gt;&amp;nbsp;UniqueProcessKey&amp;nbsp; : ULONGLONG&lt;br&gt;&lt;/div&gt;" style="shape=partialRectangle;html=1;whiteSpace=wrap;connectable=0;fillColor=#D92CD9;top=0;left=0;bottom=0;right=0;overflow=hidden;strokeColor=#001DBC;fontStyle=1;fontColor=#000000;align=left;" vertex="1" parent="Tkxw26_hyXx5wk3KDLGs-108">
          <mxGeometry width="285" height="20" as="geometry">
            <mxRectangle width="285" height="20" as="alternateBounds" />
          </mxGeometry>
        </mxCell>
        <mxCell id="Tkxw26_hyXx5wk3KDLGs-110" value="" style="shape=partialRectangle;html=1;whiteSpace=wrap;collapsible=0;dropTarget=0;pointerEvents=0;fillColor=#FFFF00;top=0;left=0;bottom=0;right=0;points=[[0,0.5],[1,0.5]];portConstraint=eastwest;fontStyle=1;align=left;fontColor=#000000;" vertex="1" parent="Tkxw26_hyXx5wk3KDLGs-105">
          <mxGeometry y="40" width="285" height="20" as="geometry" />
        </mxCell>
        <mxCell id="Tkxw26_hyXx5wk3KDLGs-111" value="&lt;div&gt;&amp;nbsp;Reserved : ULONLONG&lt;br&gt;&lt;/div&gt;" style="shape=partialRectangle;html=1;whiteSpace=wrap;connectable=0;fillColor=#FF33FF;top=0;left=0;bottom=0;right=0;overflow=hidden;strokeColor=#001DBC;fontStyle=1;fontColor=#000000;align=left;" vertex="1" parent="Tkxw26_hyXx5wk3KDLGs-110">
          <mxGeometry width="285" height="20" as="geometry">
            <mxRectangle width="285" height="20" as="alternateBounds" />
          </mxGeometry>
        </mxCell>
        <mxCell id="Tkxw26_hyXx5wk3KDLGs-112" value="&lt;div style=&quot;font-size: 12px;&quot;&gt;Structure&lt;/div&gt;&lt;div style=&quot;font-size: 12px;&quot;&gt;&lt;pre style=&quot;font-family: Consolas; font-size: 12px;&quot;&gt;UNIQUE_PROCESS_INFORMATION&lt;/pre&gt;&lt;/div&gt;" style="text;strokeColor=none;fillColor=none;html=1;fontSize=12;fontStyle=1;verticalAlign=middle;align=center;" vertex="1" parent="1">
          <mxGeometry x="-1938.0009677419355" y="220.51" width="153.54838709677418" height="70" as="geometry" />
        </mxCell>
        <mxCell id="Tkxw26_hyXx5wk3KDLGs-113" value="" style="endArrow=none;dashed=1;html=1;dashPattern=1 3;strokeWidth=2;rounded=1;fontSize=12;fontColor=#000000;exitX=0.986;exitY=0;exitDx=0;exitDy=0;exitPerimeter=0;entryX=0.003;entryY=0.103;entryDx=0;entryDy=0;entryPerimeter=0;" edge="1" parent="1" source="Tkxw26_hyXx5wk3KDLGs-83" target="Tkxw26_hyXx5wk3KDLGs-106">
          <mxGeometry width="50" height="50" relative="1" as="geometry">
            <mxPoint x="-1915" y="334.56999999999994" as="sourcePoint" />
            <mxPoint x="-1874.2099999999991" y="274.77" as="targetPoint" />
          </mxGeometry>
        </mxCell>
        <mxCell id="Tkxw26_hyXx5wk3KDLGs-114" value="" style="endArrow=none;dashed=1;html=1;dashPattern=1 3;strokeWidth=2;rounded=1;fontSize=12;fontColor=#000000;exitX=0.992;exitY=1.034;exitDx=0;exitDy=0;exitPerimeter=0;entryX=0.007;entryY=0.985;entryDx=0;entryDy=0;entryPerimeter=0;" edge="1" parent="1" source="Tkxw26_hyXx5wk3KDLGs-83" target="Tkxw26_hyXx5wk3KDLGs-110">
          <mxGeometry width="50" height="50" relative="1" as="geometry">
            <mxPoint x="-1914" y="354.56999999999994" as="sourcePoint" />
            <mxPoint x="-1874" y="333.56999999999994" as="targetPoint" />
          </mxGeometry>
        </mxCell>
        <mxCell id="Tkxw26_hyXx5wk3KDLGs-115" value="Build the global variable :&amp;nbsp;&lt;br&gt;MmPfnDatabase" style="shape=document;whiteSpace=wrap;html=1;boundedLbl=1;" vertex="1" parent="1">
          <mxGeometry x="-2730" y="334.49" width="240" height="48.52" as="geometry" />
        </mxCell>
      </root>
    </mxGraphModel>
  </diagram>
</mxfile>
